<mxfile host="Electron" modified="2023-08-03T06:33:32.723Z" agent="Mozilla/5.0 (X11; Linux x86_64) AppleWebKit/537.36 (KHTML, like Gecko) draw.io/21.6.5 Chrome/114.0.5735.243 Electron/25.3.1 Safari/537.36" etag="R30gxW7MjLYfbVrbhZIP" version="21.6.5" type="device">
  <diagram name="Similaritas Module" id="253OuGNU45egYv40BCbG">
    <mxGraphModel dx="1834" dy="1292" grid="0" gridSize="10" guides="1" tooltips="1" connect="1" arrows="1" fold="1" page="0" pageScale="1" pageWidth="850" pageHeight="1100" math="0" shadow="0">
      <root>
        <mxCell id="0" />
        <mxCell id="1" parent="0" />
        <mxCell id="FokYgpelQZuV7OycChYl-26" style="edgeStyle=entityRelationEdgeStyle;rounded=1;sketch=1;hachureGap=4;jiggle=2;curveFitting=1;orthogonalLoop=1;jettySize=auto;html=1;fontFamily=Architects Daughter;fontSource=https%3A%2F%2Ffonts.googleapis.com%2Fcss%3Ffamily%3DArchitects%2BDaughter;fontSize=16;startSize=8;endSize=8;endArrow=none;endFill=0;strokeWidth=2;fillColor=#ffcd28;gradientColor=#ffa500;strokeColor=#d79b00;" parent="1" source="FokYgpelQZuV7OycChYl-6" target="FokYgpelQZuV7OycChYl-9" edge="1">
          <mxGeometry relative="1" as="geometry" />
        </mxCell>
        <mxCell id="FokYgpelQZuV7OycChYl-24" style="edgeStyle=entityRelationEdgeStyle;rounded=1;sketch=1;hachureGap=4;jiggle=2;curveFitting=1;orthogonalLoop=1;jettySize=auto;html=1;fontFamily=Architects Daughter;fontSource=https%3A%2F%2Ffonts.googleapis.com%2Fcss%3Ffamily%3DArchitects%2BDaughter;fontSize=16;startSize=8;endSize=8;endArrow=none;endFill=0;strokeWidth=2;fillColor=#ffcd28;gradientColor=#ffa500;strokeColor=#d79b00;" parent="1" source="FokYgpelQZuV7OycChYl-6" target="FokYgpelQZuV7OycChYl-7" edge="1">
          <mxGeometry relative="1" as="geometry" />
        </mxCell>
        <mxCell id="FokYgpelQZuV7OycChYl-30" style="edgeStyle=entityRelationEdgeStyle;rounded=1;sketch=1;hachureGap=4;jiggle=2;curveFitting=1;orthogonalLoop=1;jettySize=auto;html=1;fontFamily=Architects Daughter;fontSource=https%3A%2F%2Ffonts.googleapis.com%2Fcss%3Ffamily%3DArchitects%2BDaughter;fontSize=16;startSize=8;endSize=8;endArrow=none;endFill=0;strokeWidth=2;fillColor=#ffcd28;gradientColor=#ffa500;strokeColor=#d79b00;" parent="1" source="FokYgpelQZuV7OycChYl-6" target="FokYgpelQZuV7OycChYl-13" edge="1">
          <mxGeometry relative="1" as="geometry" />
        </mxCell>
        <mxCell id="FokYgpelQZuV7OycChYl-15" style="edgeStyle=entityRelationEdgeStyle;rounded=1;sketch=1;hachureGap=4;jiggle=2;curveFitting=1;orthogonalLoop=1;jettySize=auto;html=1;fontFamily=Architects Daughter;fontSource=https%3A%2F%2Ffonts.googleapis.com%2Fcss%3Ffamily%3DArchitects%2BDaughter;fontSize=16;startSize=8;endSize=8;endArrow=none;endFill=0;strokeWidth=2;fillColor=#e6d0de;gradientColor=#d5739d;strokeColor=#996185;" parent="1" source="FokYgpelQZuV7OycChYl-1" target="FokYgpelQZuV7OycChYl-7" edge="1">
          <mxGeometry relative="1" as="geometry" />
        </mxCell>
        <mxCell id="FokYgpelQZuV7OycChYl-16" style="edgeStyle=entityRelationEdgeStyle;rounded=1;sketch=1;hachureGap=4;jiggle=2;curveFitting=1;orthogonalLoop=1;jettySize=auto;html=1;fontFamily=Architects Daughter;fontSource=https%3A%2F%2Ffonts.googleapis.com%2Fcss%3Ffamily%3DArchitects%2BDaughter;fontSize=16;startSize=8;endSize=8;endArrow=none;endFill=0;strokeWidth=2;fillColor=#e6d0de;gradientColor=#d5739d;strokeColor=#996185;" parent="1" source="FokYgpelQZuV7OycChYl-1" target="FokYgpelQZuV7OycChYl-9" edge="1">
          <mxGeometry relative="1" as="geometry" />
        </mxCell>
        <mxCell id="FokYgpelQZuV7OycChYl-1" value="Praja" style="shape=umlActor;verticalLabelPosition=bottom;verticalAlign=top;html=1;outlineConnect=0;sketch=1;hachureGap=4;jiggle=2;curveFitting=1;fontFamily=Architects Daughter;fontSource=https%3A%2F%2Ffonts.googleapis.com%2Fcss%3Ffamily%3DArchitects%2BDaughter;fontSize=20;fillColor=#e6d0de;gradientColor=#d5739d;strokeColor=#996185;rounded=1;" parent="1" vertex="1">
          <mxGeometry x="-291" y="-135" width="30" height="60" as="geometry" />
        </mxCell>
        <mxCell id="FokYgpelQZuV7OycChYl-17" style="edgeStyle=entityRelationEdgeStyle;rounded=1;sketch=1;hachureGap=4;jiggle=2;curveFitting=1;orthogonalLoop=1;jettySize=auto;html=1;fontFamily=Architects Daughter;fontSource=https%3A%2F%2Ffonts.googleapis.com%2Fcss%3Ffamily%3DArchitects%2BDaughter;fontSize=16;startSize=8;endSize=8;endArrow=none;endFill=0;strokeWidth=2;fillColor=#dae8fc;gradientColor=#7ea6e0;strokeColor=#6c8ebf;" parent="1" source="FokYgpelQZuV7OycChYl-2" target="FokYgpelQZuV7OycChYl-7" edge="1">
          <mxGeometry relative="1" as="geometry" />
        </mxCell>
        <mxCell id="FokYgpelQZuV7OycChYl-18" style="edgeStyle=entityRelationEdgeStyle;rounded=1;sketch=1;hachureGap=4;jiggle=2;curveFitting=1;orthogonalLoop=1;jettySize=auto;html=1;fontFamily=Architects Daughter;fontSource=https%3A%2F%2Ffonts.googleapis.com%2Fcss%3Ffamily%3DArchitects%2BDaughter;fontSize=16;startSize=8;endSize=8;endArrow=none;endFill=0;strokeWidth=2;fillColor=#dae8fc;gradientColor=#7ea6e0;strokeColor=#6c8ebf;" parent="1" source="FokYgpelQZuV7OycChYl-2" target="FokYgpelQZuV7OycChYl-9" edge="1">
          <mxGeometry relative="1" as="geometry" />
        </mxCell>
        <mxCell id="FokYgpelQZuV7OycChYl-19" style="edgeStyle=entityRelationEdgeStyle;rounded=1;sketch=1;hachureGap=4;jiggle=2;curveFitting=1;orthogonalLoop=1;jettySize=auto;html=1;fontFamily=Architects Daughter;fontSource=https%3A%2F%2Ffonts.googleapis.com%2Fcss%3Ffamily%3DArchitects%2BDaughter;fontSize=16;startSize=8;endSize=8;endArrow=none;endFill=0;strokeWidth=2;fillColor=#dae8fc;gradientColor=#7ea6e0;strokeColor=#6c8ebf;" parent="1" source="FokYgpelQZuV7OycChYl-2" target="FokYgpelQZuV7OycChYl-11" edge="1">
          <mxGeometry relative="1" as="geometry" />
        </mxCell>
        <mxCell id="FokYgpelQZuV7OycChYl-20" style="edgeStyle=entityRelationEdgeStyle;rounded=1;sketch=1;hachureGap=4;jiggle=2;curveFitting=1;orthogonalLoop=1;jettySize=auto;html=1;fontFamily=Architects Daughter;fontSource=https%3A%2F%2Ffonts.googleapis.com%2Fcss%3Ffamily%3DArchitects%2BDaughter;fontSize=16;startSize=8;endSize=8;endArrow=none;endFill=0;strokeWidth=2;fillColor=#dae8fc;gradientColor=#7ea6e0;strokeColor=#6c8ebf;" parent="1" source="FokYgpelQZuV7OycChYl-2" target="FokYgpelQZuV7OycChYl-13" edge="1">
          <mxGeometry relative="1" as="geometry" />
        </mxCell>
        <mxCell id="FokYgpelQZuV7OycChYl-21" style="edgeStyle=entityRelationEdgeStyle;rounded=1;sketch=1;hachureGap=4;jiggle=2;curveFitting=1;orthogonalLoop=1;jettySize=auto;html=1;fontFamily=Architects Daughter;fontSource=https%3A%2F%2Ffonts.googleapis.com%2Fcss%3Ffamily%3DArchitects%2BDaughter;fontSize=16;startSize=8;endSize=8;endArrow=none;endFill=0;strokeWidth=2;fillColor=#dae8fc;gradientColor=#7ea6e0;strokeColor=#6c8ebf;" parent="1" source="FokYgpelQZuV7OycChYl-2" target="FokYgpelQZuV7OycChYl-8" edge="1">
          <mxGeometry relative="1" as="geometry" />
        </mxCell>
        <mxCell id="FokYgpelQZuV7OycChYl-23" style="edgeStyle=entityRelationEdgeStyle;rounded=1;sketch=1;hachureGap=4;jiggle=2;curveFitting=1;orthogonalLoop=1;jettySize=auto;html=1;fontFamily=Architects Daughter;fontSource=https%3A%2F%2Ffonts.googleapis.com%2Fcss%3Ffamily%3DArchitects%2BDaughter;fontSize=16;startSize=8;endSize=8;endArrow=none;endFill=0;strokeWidth=2;fillColor=#dae8fc;gradientColor=#7ea6e0;strokeColor=#6c8ebf;" parent="1" source="FokYgpelQZuV7OycChYl-2" target="FokYgpelQZuV7OycChYl-14" edge="1">
          <mxGeometry relative="1" as="geometry" />
        </mxCell>
        <mxCell id="FokYgpelQZuV7OycChYl-2" value="Operator" style="shape=umlActor;verticalLabelPosition=bottom;verticalAlign=top;html=1;outlineConnect=0;sketch=1;hachureGap=4;jiggle=2;curveFitting=1;fontFamily=Architects Daughter;fontSource=https%3A%2F%2Ffonts.googleapis.com%2Fcss%3Ffamily%3DArchitects%2BDaughter;fontSize=20;fillColor=#dae8fc;gradientColor=#7ea6e0;strokeColor=#6c8ebf;rounded=1;" parent="1" vertex="1">
          <mxGeometry x="-291" y="429" width="30" height="60" as="geometry" />
        </mxCell>
        <mxCell id="FokYgpelQZuV7OycChYl-3" value="" style="swimlane;startSize=0;sketch=1;hachureGap=4;jiggle=2;curveFitting=1;fontFamily=Architects Daughter;fontSource=https%3A%2F%2Ffonts.googleapis.com%2Fcss%3Ffamily%3DArchitects%2BDaughter;fontSize=20;rounded=1;" parent="1" vertex="1">
          <mxGeometry x="-50" y="-207" width="452" height="754" as="geometry" />
        </mxCell>
        <mxCell id="FokYgpelQZuV7OycChYl-4" value="&amp;lt;&amp;lt; Similaritas Module &amp;gt;&amp;gt;" style="text;html=1;align=center;verticalAlign=middle;resizable=0;points=[];autosize=1;strokeColor=none;fillColor=none;fontSize=20;fontFamily=Architects Daughter;rounded=1;" parent="FokYgpelQZuV7OycChYl-3" vertex="1">
          <mxGeometry x="17" y="9" width="232" height="36" as="geometry" />
        </mxCell>
        <mxCell id="FokYgpelQZuV7OycChYl-7" value="Melihat Status Similaritas" style="ellipse;whiteSpace=wrap;html=1;sketch=1;hachureGap=4;jiggle=2;curveFitting=1;fontFamily=Architects Daughter;fontSource=https%3A%2F%2Ffonts.googleapis.com%2Fcss%3Ffamily%3DArchitects%2BDaughter;fontSize=19;rounded=1;" parent="FokYgpelQZuV7OycChYl-3" vertex="1">
          <mxGeometry x="55" y="66" width="120" height="80" as="geometry" />
        </mxCell>
        <mxCell id="FokYgpelQZuV7OycChYl-8" value="Pencarian Data" style="ellipse;whiteSpace=wrap;html=1;sketch=1;hachureGap=4;jiggle=2;curveFitting=1;fontFamily=Architects Daughter;fontSource=https%3A%2F%2Ffonts.googleapis.com%2Fcss%3Ffamily%3DArchitects%2BDaughter;fontSize=20;rounded=1;" parent="FokYgpelQZuV7OycChYl-3" vertex="1">
          <mxGeometry x="271" y="146" width="120" height="80" as="geometry" />
        </mxCell>
        <mxCell id="FokYgpelQZuV7OycChYl-9" value="Cetak BPS" style="ellipse;whiteSpace=wrap;html=1;sketch=1;hachureGap=4;jiggle=2;curveFitting=1;fontFamily=Architects Daughter;fontSource=https%3A%2F%2Ffonts.googleapis.com%2Fcss%3Ffamily%3DArchitects%2BDaughter;fontSize=20;rounded=1;" parent="FokYgpelQZuV7OycChYl-3" vertex="1">
          <mxGeometry x="55" y="226" width="120" height="80" as="geometry" />
        </mxCell>
        <mxCell id="FokYgpelQZuV7OycChYl-10" value="Merubah Pengaturan BPS" style="ellipse;whiteSpace=wrap;html=1;sketch=1;hachureGap=4;jiggle=2;curveFitting=1;fontFamily=Architects Daughter;fontSource=https%3A%2F%2Ffonts.googleapis.com%2Fcss%3Ffamily%3DArchitects%2BDaughter;fontSize=20;rounded=1;" parent="FokYgpelQZuV7OycChYl-3" vertex="1">
          <mxGeometry x="271" y="306" width="120" height="80" as="geometry" />
        </mxCell>
        <mxCell id="FokYgpelQZuV7OycChYl-11" value="Input Nilai Similaritas" style="ellipse;whiteSpace=wrap;html=1;sketch=1;hachureGap=4;jiggle=2;curveFitting=1;fontFamily=Architects Daughter;fontSource=https%3A%2F%2Ffonts.googleapis.com%2Fcss%3Ffamily%3DArchitects%2BDaughter;fontSize=20;rounded=1;" parent="FokYgpelQZuV7OycChYl-3" vertex="1">
          <mxGeometry x="55" y="386" width="120" height="80" as="geometry" />
        </mxCell>
        <mxCell id="FokYgpelQZuV7OycChYl-12" value="Export Akumulasi Data Similaritas" style="ellipse;whiteSpace=wrap;html=1;sketch=1;hachureGap=4;jiggle=2;curveFitting=1;fontFamily=Architects Daughter;fontSource=https%3A%2F%2Ffonts.googleapis.com%2Fcss%3Ffamily%3DArchitects%2BDaughter;fontSize=17;rounded=1;" parent="FokYgpelQZuV7OycChYl-3" vertex="1">
          <mxGeometry x="271" y="466" width="120" height="80" as="geometry" />
        </mxCell>
        <mxCell id="FokYgpelQZuV7OycChYl-13" value="Checklis&lt;br style=&quot;font-size: 14px;&quot;&gt;Bibliografi, Small Word, Quote Materials" style="ellipse;whiteSpace=wrap;html=1;sketch=1;hachureGap=4;jiggle=2;curveFitting=1;fontFamily=Architects Daughter;fontSource=https%3A%2F%2Ffonts.googleapis.com%2Fcss%3Ffamily%3DArchitects%2BDaughter;fontSize=14;rounded=1;" parent="FokYgpelQZuV7OycChYl-3" vertex="1">
          <mxGeometry x="55" y="546" width="120" height="80" as="geometry" />
        </mxCell>
        <mxCell id="FokYgpelQZuV7OycChYl-14" value="Memberi Approval" style="ellipse;whiteSpace=wrap;html=1;sketch=1;hachureGap=4;jiggle=2;curveFitting=1;fontFamily=Architects Daughter;fontSource=https%3A%2F%2Ffonts.googleapis.com%2Fcss%3Ffamily%3DArchitects%2BDaughter;fontSize=20;rounded=1;" parent="FokYgpelQZuV7OycChYl-3" vertex="1">
          <mxGeometry x="271" y="626" width="120" height="80" as="geometry" />
        </mxCell>
        <mxCell id="FokYgpelQZuV7OycChYl-25" style="edgeStyle=entityRelationEdgeStyle;rounded=1;sketch=1;hachureGap=4;jiggle=2;curveFitting=1;orthogonalLoop=1;jettySize=auto;html=1;fontFamily=Architects Daughter;fontSource=https%3A%2F%2Ffonts.googleapis.com%2Fcss%3Ffamily%3DArchitects%2BDaughter;fontSize=16;startSize=8;endSize=8;endArrow=none;endFill=0;strokeWidth=2;fillColor=#ffcd28;gradientColor=#ffa500;strokeColor=#d79b00;" parent="1" source="FokYgpelQZuV7OycChYl-6" target="FokYgpelQZuV7OycChYl-8" edge="1">
          <mxGeometry relative="1" as="geometry" />
        </mxCell>
        <mxCell id="FokYgpelQZuV7OycChYl-27" style="edgeStyle=entityRelationEdgeStyle;rounded=1;sketch=1;hachureGap=4;jiggle=2;curveFitting=1;orthogonalLoop=1;jettySize=auto;html=1;fontFamily=Architects Daughter;fontSource=https%3A%2F%2Ffonts.googleapis.com%2Fcss%3Ffamily%3DArchitects%2BDaughter;fontSize=16;startSize=8;endSize=8;endArrow=none;endFill=0;strokeWidth=2;fillColor=#ffcd28;gradientColor=#ffa500;strokeColor=#d79b00;" parent="1" source="FokYgpelQZuV7OycChYl-6" target="FokYgpelQZuV7OycChYl-10" edge="1">
          <mxGeometry relative="1" as="geometry" />
        </mxCell>
        <mxCell id="FokYgpelQZuV7OycChYl-28" style="edgeStyle=entityRelationEdgeStyle;rounded=1;sketch=1;hachureGap=4;jiggle=2;curveFitting=1;orthogonalLoop=1;jettySize=auto;html=1;fontFamily=Architects Daughter;fontSource=https%3A%2F%2Ffonts.googleapis.com%2Fcss%3Ffamily%3DArchitects%2BDaughter;fontSize=16;startSize=8;endSize=8;endArrow=none;endFill=0;strokeWidth=2;fillColor=#ffcd28;gradientColor=#ffa500;strokeColor=#d79b00;" parent="1" source="FokYgpelQZuV7OycChYl-6" target="FokYgpelQZuV7OycChYl-11" edge="1">
          <mxGeometry relative="1" as="geometry" />
        </mxCell>
        <mxCell id="FokYgpelQZuV7OycChYl-29" style="edgeStyle=entityRelationEdgeStyle;rounded=1;sketch=1;hachureGap=4;jiggle=2;curveFitting=1;orthogonalLoop=1;jettySize=auto;html=1;fontFamily=Architects Daughter;fontSource=https%3A%2F%2Ffonts.googleapis.com%2Fcss%3Ffamily%3DArchitects%2BDaughter;fontSize=16;startSize=8;endSize=8;endArrow=none;endFill=0;strokeWidth=2;fillColor=#ffcd28;gradientColor=#ffa500;strokeColor=#d79b00;" parent="1" source="FokYgpelQZuV7OycChYl-6" target="FokYgpelQZuV7OycChYl-12" edge="1">
          <mxGeometry relative="1" as="geometry" />
        </mxCell>
        <mxCell id="FokYgpelQZuV7OycChYl-31" style="edgeStyle=entityRelationEdgeStyle;rounded=1;sketch=1;hachureGap=4;jiggle=2;curveFitting=1;orthogonalLoop=1;jettySize=auto;html=1;fontFamily=Architects Daughter;fontSource=https%3A%2F%2Ffonts.googleapis.com%2Fcss%3Ffamily%3DArchitects%2BDaughter;fontSize=16;startSize=8;endSize=8;endArrow=none;endFill=0;strokeWidth=2;fillColor=#ffcd28;gradientColor=#ffa500;strokeColor=#d79b00;" parent="1" source="FokYgpelQZuV7OycChYl-6" target="FokYgpelQZuV7OycChYl-14" edge="1">
          <mxGeometry relative="1" as="geometry" />
        </mxCell>
        <mxCell id="FokYgpelQZuV7OycChYl-6" value="Admin" style="shape=umlActor;verticalLabelPosition=bottom;verticalAlign=top;html=1;outlineConnect=0;sketch=1;hachureGap=4;jiggle=2;curveFitting=1;fontFamily=Architects Daughter;fontSource=https%3A%2F%2Ffonts.googleapis.com%2Fcss%3Ffamily%3DArchitects%2BDaughter;fontSize=20;fillColor=#ffcd28;gradientColor=#ffa500;strokeColor=#d79b00;rounded=1;" parent="1" vertex="1">
          <mxGeometry x="672" y="180" width="30" height="60" as="geometry" />
        </mxCell>
      </root>
    </mxGraphModel>
  </diagram>
</mxfile>
